<svg width="97" height="20" viewBox="0 0 97 20" fill="none" xmlns="http://www.w3.org/2000/svg">
<path d="M6.97727 19.277C5.52462 19.277 4.27509 18.9692 3.22869 18.3537C2.18845 17.732 1.38826 16.8703 0.828125 15.7685C0.274148 14.6667 -0.00284089 13.3987 -0.00284089 11.9645C-0.00284089 10.5118 0.277225 9.23769 0.837358 8.14204C1.40365 7.04025 2.20691 6.18158 3.24716 5.56605C4.28741 4.94437 5.52462 4.63352 6.95881 4.63352C8.19602 4.63352 9.27936 4.85819 10.2088 5.30753C11.1383 5.75686 11.8738 6.38778 12.4155 7.20028C12.9571 8.01278 13.2557 8.96686 13.3111 10.0625H9.59943C9.49479 9.35464 9.2178 8.78527 8.76847 8.3544C8.32528 7.91738 7.74361 7.69886 7.02344 7.69886C6.41406 7.69886 5.88163 7.86506 5.42614 8.19744C4.9768 8.52367 4.62595 9.00071 4.37358 9.62855C4.12121 10.2564 3.99503 11.0166 3.99503 11.9091C3.99503 12.8139 4.11813 13.5833 4.36435 14.2173C4.61671 14.8513 4.97064 15.3345 5.42614 15.6669C5.88163 15.9993 6.41406 16.1655 7.02344 16.1655C7.47277 16.1655 7.87595 16.0732 8.23296 15.8885C8.59612 15.7038 8.89465 15.4361 9.12855 15.0852C9.36861 14.7282 9.52557 14.3004 9.59943 13.8018H13.3111C13.2495 14.8852 12.9541 15.8393 12.4247 16.6641C11.9015 17.4827 11.1783 18.1229 10.255 18.5845C9.33168 19.0462 8.23911 19.277 6.97727 19.277ZM22.237 19.277C20.8029 19.277 19.5626 18.9723 18.5162 18.3629C17.4759 17.7474 16.6726 16.8918 16.1064 15.7962C15.5401 14.6944 15.2569 13.4171 15.2569 11.9645C15.2569 10.4995 15.5401 9.21922 16.1064 8.12358C16.6726 7.02178 17.4759 6.16619 18.5162 5.55682C19.5626 4.94129 20.8029 4.63352 22.237 4.63352C23.6712 4.63352 24.9084 4.94129 25.9487 5.55682C26.9951 6.16619 27.8014 7.02178 28.3677 8.12358C28.934 9.21922 29.2172 10.4995 29.2172 11.9645C29.2172 13.4171 28.934 14.6944 28.3677 15.7962C27.8014 16.8918 26.9951 17.7474 25.9487 18.3629C24.9084 18.9723 23.6712 19.277 22.237 19.277ZM22.2555 16.2301C22.908 16.2301 23.4527 16.0455 23.8897 15.6761C24.3268 15.3007 24.6561 14.7898 24.8777 14.1435C25.1054 13.4972 25.2193 12.7616 25.2193 11.9368C25.2193 11.112 25.1054 10.3764 24.8777 9.73011C24.6561 9.08381 24.3268 8.57292 23.8897 8.19744C23.4527 7.82197 22.908 7.63423 22.2555 7.63423C21.5969 7.63423 21.0429 7.82197 20.5936 8.19744C20.1504 8.57292 19.8149 9.08381 19.5872 9.73011C19.3656 10.3764 19.2548 11.112 19.2548 11.9368C19.2548 12.7616 19.3656 13.4972 19.5872 14.1435C19.8149 14.7898 20.1504 15.3007 20.5936 15.6761C21.0429 16.0455 21.5969 16.2301 22.2555 16.2301ZM37.0005 19.2308C35.9234 19.2308 34.9477 18.9538 34.0737 18.3999C33.2058 17.8397 32.5164 17.018 32.0055 15.9347C31.5008 14.8452 31.2484 13.5095 31.2484 11.9276C31.2484 10.3026 31.51 8.95147 32.0332 7.87429C32.5564 6.79096 33.252 5.98153 34.1199 5.44602C34.9939 4.90436 35.9511 4.63352 36.9913 4.63352C37.7853 4.63352 38.447 4.76894 38.9764 5.03977C39.5119 5.30445 39.9428 5.63684 40.269 6.03693C40.6014 6.43087 40.8538 6.81865 41.0261 7.20028H41.1461V0.0909085H45.0701V19H41.1923V16.7287H41.0261C40.8414 17.1226 40.5798 17.5135 40.2413 17.9013C39.9089 18.2829 39.475 18.5999 38.9395 18.8523C38.4101 19.1046 37.7638 19.2308 37.0005 19.2308ZM38.247 16.1009C38.881 16.1009 39.4165 15.9285 39.8535 15.5838C40.2967 15.233 40.6352 14.7436 40.8691 14.1158C41.1092 13.4879 41.2292 12.7524 41.2292 11.9091C41.2292 11.0658 41.1123 10.3333 40.8784 9.71165C40.6445 9.08996 40.3059 8.60985 39.8627 8.27131C39.4196 7.93276 38.881 7.76349 38.247 7.76349C37.6007 7.76349 37.0559 7.93892 36.6127 8.28977C36.1696 8.64062 35.8341 9.12689 35.6064 9.74858C35.3786 10.3703 35.2647 11.0904 35.2647 11.9091C35.2647 12.7339 35.3786 13.4633 35.6064 14.0973C35.8403 14.7251 36.1757 15.2176 36.6127 15.5746C37.0559 15.9254 37.6007 16.1009 38.247 16.1009ZM54.767 19.277C53.3082 19.277 52.0526 18.9815 51 18.3906C49.9536 17.7936 49.1473 16.9503 48.581 15.8608C48.0147 14.7652 47.7315 13.4695 47.7315 11.9737C47.7315 10.5149 48.0147 9.23461 48.581 8.13281C49.1473 7.03101 49.9444 6.17235 50.9723 5.55682C52.0064 4.94129 53.219 4.63352 54.6101 4.63352C55.5457 4.63352 56.4167 4.78433 57.223 5.08594C58.0355 5.38139 58.7434 5.82765 59.3466 6.42472C59.956 7.02178 60.4299 7.77273 60.7685 8.67756C61.107 9.57623 61.2763 10.6288 61.2763 11.8352V12.9155H49.3011V10.478H57.5739C57.5739 9.91169 57.4508 9.41004 57.2045 8.97301C56.9583 8.53598 56.6167 8.19437 56.1797 7.94815C55.7488 7.69579 55.2472 7.5696 54.6747 7.5696C54.0777 7.5696 53.5483 7.7081 53.0866 7.98508C52.6312 8.25592 52.2741 8.62216 52.0156 9.08381C51.7571 9.5393 51.6248 10.0471 51.6186 10.6072V12.9247C51.6186 13.6264 51.7479 14.2327 52.0064 14.7436C52.2711 15.2545 52.6435 15.6484 53.1236 15.9254C53.6037 16.2024 54.1731 16.3409 54.8317 16.3409C55.2687 16.3409 55.6688 16.2794 56.032 16.1562C56.3951 16.0331 56.706 15.8485 56.9645 15.6023C57.223 15.3561 57.42 15.0545 57.5554 14.6974L61.1932 14.9375C61.0085 15.8116 60.63 16.5748 60.0575 17.2273C59.4912 17.8736 58.7588 18.3783 57.8601 18.7415C56.9676 19.0985 55.9366 19.277 54.767 19.277ZM68.4041 19.3232C67.5485 19.3232 66.7668 19.157 66.0589 18.8246C65.3511 18.486 64.7879 17.9998 64.3693 17.3658C63.9508 16.7256 63.7415 15.95 63.7415 15.0391C63.7415 14.3374 63.8738 13.7464 64.1385 13.2663C64.4032 12.7862 64.7786 12.3923 65.2649 12.0845C65.7512 11.7768 66.3267 11.5336 66.9915 11.3551C67.6563 11.1766 68.3887 11.0381 69.1889 10.9396C69.983 10.8411 70.6539 10.755 71.2017 10.6811C71.7557 10.6072 72.1773 10.4903 72.4666 10.3303C72.7559 10.1702 72.9006 9.9117 72.9006 9.55469V9.2223C72.9006 8.25592 72.6113 7.49574 72.0327 6.94176C71.4602 6.38163 70.6354 6.10156 69.5582 6.10156C68.5365 6.10156 67.7024 6.32623 67.0561 6.77557C66.416 7.2249 65.9666 7.75426 65.7081 8.36364L64.1477 7.80043C64.4678 7.02486 64.911 6.40625 65.4773 5.9446C66.0436 5.4768 66.6776 5.14134 67.3793 4.93821C68.081 4.72893 68.7919 4.62429 69.5121 4.62429C70.0537 4.62429 70.617 4.69508 71.2017 4.83665C71.7926 4.97822 72.3404 5.22443 72.8452 5.57528C73.3499 5.91998 73.7592 6.40317 74.0732 7.02486C74.3871 7.64039 74.544 8.42211 74.544 9.37003V19H72.9006V16.7564H72.799C72.602 17.175 72.3097 17.5812 71.9219 17.9751C71.5341 18.3691 71.0478 18.6922 70.4631 18.9446C69.8783 19.197 69.192 19.3232 68.4041 19.3232ZM68.6257 17.8182C69.4998 17.8182 70.2569 17.6243 70.897 17.2365C71.5372 16.8487 72.0296 16.3348 72.3743 15.6946C72.7251 15.0483 72.9006 14.3374 72.9006 13.5618V11.5121C72.7775 11.629 72.5713 11.7337 72.282 11.826C71.9988 11.9183 71.6695 12.0014 71.294 12.0753C70.9247 12.143 70.5554 12.2015 70.1861 12.2507C69.8168 12.3 69.4844 12.343 69.1889 12.38C68.3887 12.4785 67.7055 12.6323 67.1392 12.8416C66.5729 13.0509 66.139 13.3402 65.8374 13.7095C65.5357 14.0727 65.3849 14.5405 65.3849 15.1129C65.3849 15.9747 65.6927 16.6425 66.3082 17.1165C66.9238 17.5843 67.6963 17.8182 68.6257 17.8182ZM78.9343 19V4.81818H80.587V19H78.9343ZM79.7745 2.38068C79.436 2.38068 79.1467 2.26681 78.9066 2.03906C78.6665 1.80516 78.5465 1.52509 78.5465 1.19886C78.5465 0.872632 78.6665 0.595644 78.9066 0.367898C79.1467 0.133995 79.436 0.0170442 79.7745 0.0170442C80.113 0.0170442 80.4023 0.133995 80.6424 0.367898C80.8825 0.595644 81.0025 0.872632 81.0025 1.19886C81.0025 1.52509 80.8825 1.80516 80.6424 2.03906C80.4023 2.26681 80.113 2.38068 79.7745 2.38068ZM90.0392 19.2955C88.8759 19.2955 87.8572 18.9877 86.9831 18.3722C86.1091 17.7566 85.4258 16.898 84.9334 15.7962C84.4471 14.6944 84.204 13.411 84.204 11.946C84.204 10.4872 84.4471 9.20999 84.9334 8.11435C85.4258 7.01255 86.1122 6.15696 86.9924 5.54759C87.8726 4.93205 88.8974 4.62429 90.0669 4.62429C90.9287 4.62429 91.6458 4.77817 92.2182 5.08594C92.7907 5.38755 93.2492 5.76302 93.5939 6.21236C93.9386 6.66169 94.2064 7.09872 94.3972 7.52344H94.5449V0.0909085H96.1976V19H94.5911V16.3686H94.3972C94.2064 16.7995 93.9355 17.2427 93.5847 17.6982C93.2338 18.1475 92.7691 18.526 92.1905 18.8338C91.6181 19.1416 90.901 19.2955 90.0392 19.2955ZM90.2331 17.7905C91.1503 17.7905 91.932 17.5412 92.5783 17.0426C93.2246 16.5379 93.717 15.8454 94.0556 14.9652C94.4003 14.0788 94.5726 13.0632 94.5726 11.9183C94.5726 10.7857 94.4033 9.78551 94.0648 8.91761C93.7263 8.04356 93.2338 7.36032 92.5875 6.8679C91.9412 6.36932 91.1564 6.12003 90.2331 6.12003C89.2852 6.12003 88.485 6.37855 87.8326 6.8956C87.1863 7.40649 86.6938 8.09896 86.3553 8.97301C86.0229 9.84706 85.8567 10.8288 85.8567 11.9183C85.8567 13.0201 86.026 14.0142 86.3645 14.9006C86.7031 15.7869 87.1955 16.4917 87.8418 17.0149C88.4943 17.532 89.2914 17.7905 90.2331 17.7905Z" fill="url(#paint0_linear_1128_2936)"/>
<defs>
<linearGradient id="paint0_linear_1128_2936" x1="-1" y1="10" x2="99" y2="10" gradientUnits="userSpaceOnUse">
<stop stop-color="#2563EB"/>
<stop offset="1" stop-color="#9333EA"/>
</linearGradient>
</defs>
</svg>
