<svg width="97" height="24" viewBox="0 0 97 24" fill="none" xmlns="http://www.w3.org/2000/svg">
<path d="M5.50923 1.18182V23H0.896307V1.18182H5.50923ZM8.47354 4.98508V1.18182H26.3926V4.98508H19.7129V23H15.1532V4.98508H8.47354ZM33.9565 1.18182V23H29.3436V1.18182H33.9565ZM49.5877 7.45668C49.5025 6.5973 49.1367 5.92969 48.4904 5.45383C47.8441 4.97798 46.967 4.74006 45.859 4.74006C45.1062 4.74006 44.4705 4.84659 43.9521 5.05966C43.4336 5.26562 43.0359 5.55327 42.7589 5.92258C42.489 6.2919 42.354 6.71094 42.354 7.17969C42.3398 7.57031 42.4215 7.91122 42.5991 8.20241C42.7837 8.49361 43.0359 8.74574 43.3555 8.95881C43.6751 9.16477 44.0444 9.34588 44.4634 9.50213C44.8825 9.65128 45.3299 9.77912 45.8058 9.88565L47.766 10.3544C48.7177 10.5675 49.5913 10.8516 50.3867 11.2067C51.1822 11.5618 51.8711 11.9986 52.4535 12.517C53.0359 13.0355 53.4869 13.6463 53.8065 14.3494C54.1332 15.0526 54.3001 15.8587 54.3072 16.7678C54.3001 18.103 53.9592 19.2607 53.2844 20.2408C52.6168 21.2138 51.6509 21.9702 50.3867 22.5099C49.1296 23.0426 47.6133 23.3089 45.8377 23.3089C44.0763 23.3089 42.5423 23.0391 41.2354 22.4993C39.9357 21.9595 38.9201 21.1605 38.1886 20.1023C37.4641 19.0369 37.0842 17.7195 37.0487 16.1499H41.5124C41.5621 16.8814 41.7717 17.4922 42.141 17.9822C42.5174 18.4652 43.0181 18.831 43.6431 19.0795C44.2752 19.321 44.989 19.4418 45.7844 19.4418C46.5657 19.4418 47.244 19.3281 47.8192 19.1009C48.4016 18.8736 48.8526 18.5575 49.1722 18.1527C49.4918 17.7479 49.6516 17.2827 49.6516 16.7571C49.6516 16.267 49.506 15.8551 49.2148 15.5213C48.9308 15.1875 48.5117 14.9034 47.9577 14.669C47.4109 14.4347 46.7397 14.2216 45.9442 14.0298L43.5685 13.4332C41.729 12.9858 40.2766 12.2862 39.2113 11.3345C38.146 10.3828 37.6168 9.10085 37.6239 7.48864C37.6168 6.16761 37.9684 5.01349 38.6786 4.02628C39.396 3.03906 40.3796 2.26847 41.6296 1.71449C42.8796 1.16051 44.3001 0.883522 45.891 0.883522C47.5103 0.883522 48.9237 1.16051 50.131 1.71449C51.3455 2.26847 52.2901 3.03906 52.9648 4.02628C53.6396 5.01349 53.9876 6.15696 54.0089 7.45668H49.5877ZM57.8944 23.1477C57.5194 23.1477 57.1974 23.0152 56.9284 22.75C56.6633 22.4811 56.5307 22.1591 56.5307 21.7841C56.5307 21.4129 56.6633 21.0947 56.9284 20.8295C57.1974 20.5644 57.5194 20.4318 57.8944 20.4318C58.258 20.4318 58.5762 20.5644 58.8489 20.8295C59.1216 21.0947 59.258 21.4129 59.258 21.7841C59.258 22.0341 59.1936 22.2633 59.0648 22.4716C58.9398 22.6761 58.775 22.8409 58.5705 22.9659C58.3659 23.0871 58.1406 23.1477 57.8944 23.1477ZM65.5066 23.1776C64.678 23.1776 63.9275 22.9645 63.2551 22.5384C62.5875 22.1075 62.0572 21.4754 61.6642 20.642C61.276 19.804 61.0819 18.7765 61.0819 17.5597C61.0819 16.3097 61.2831 15.2704 61.6855 14.4418C62.088 13.6084 62.623 12.9858 63.2907 12.5739C63.963 12.1572 64.6993 11.9489 65.4995 11.9489C66.1103 11.9489 66.6193 12.053 67.0265 12.2614C67.4384 12.465 67.7698 12.7206 68.0208 13.0284C68.2765 13.3314 68.4706 13.6297 68.6032 13.9233H68.6955V8.45455H71.714V23H68.731V21.2528H68.6032C68.4611 21.5559 68.2599 21.8565 67.9995 22.1548C67.7438 22.4484 67.41 22.6922 66.998 22.8864C66.5909 23.0805 66.0937 23.1776 65.5066 23.1776ZM66.4654 20.7699C66.9531 20.7699 67.365 20.6373 67.7012 20.3722C68.0421 20.1023 68.3025 19.7259 68.4824 19.2429C68.6671 18.7599 68.7594 18.1941 68.7594 17.5455C68.7594 16.8968 68.6694 16.3333 68.4895 15.8551C68.3096 15.3769 68.0492 15.0076 67.7083 14.7472C67.3674 14.4867 66.9531 14.3565 66.4654 14.3565C65.9682 14.3565 65.5492 14.4915 65.2083 14.7614C64.8674 15.0312 64.6093 15.4053 64.4341 15.8835C64.2589 16.3617 64.1713 16.9157 64.1713 17.5455C64.1713 18.1799 64.2589 18.741 64.4341 19.2287C64.6141 19.7116 64.8721 20.0904 65.2083 20.3651C65.5492 20.6349 65.9682 20.7699 66.4654 20.7699ZM79.1731 23.2131C78.051 23.2131 77.085 22.9858 76.2754 22.5312C75.4705 22.072 74.8502 21.4233 74.4146 20.5852C73.979 19.7424 73.7612 18.7457 73.7612 17.5952C73.7612 16.473 73.979 15.4882 74.4146 14.6406C74.8502 13.7931 75.4634 13.1326 76.2541 12.6591C77.0495 12.1856 77.9823 11.9489 79.0524 11.9489C79.7721 11.9489 80.4421 12.0649 81.0623 12.2969C81.6873 12.5241 82.2318 12.8674 82.6958 13.3267C83.1646 13.786 83.5292 14.3636 83.7896 15.0597C84.05 15.7509 84.1802 16.5606 84.1802 17.4886V18.3196H74.9686V16.4446H81.3322C81.3322 16.009 81.2375 15.6231 81.0481 15.2869C80.8587 14.9508 80.5959 14.688 80.2598 14.4986C79.9283 14.3045 79.5424 14.2074 79.1021 14.2074C78.6428 14.2074 78.2356 14.3139 77.8805 14.527C77.5301 14.7353 77.2555 15.017 77.0566 15.3722C76.8578 15.7225 76.756 16.1132 76.7512 16.544V18.3267C76.7512 18.8665 76.8507 19.3329 77.0495 19.7259C77.2531 20.1188 77.5396 20.4219 77.9089 20.6349C78.2782 20.848 78.7162 20.9545 79.2228 20.9545C79.559 20.9545 79.8668 20.9072 80.1461 20.8125C80.4255 20.7178 80.6646 20.5758 80.8635 20.3864C81.0623 20.197 81.2138 19.965 81.318 19.6903L84.1163 19.875C83.9743 20.5473 83.6831 21.1345 83.2427 21.6364C82.8071 22.1335 82.2437 22.5218 81.5524 22.8011C80.8658 23.0758 80.0727 23.2131 79.1731 23.2131ZM96.0321 12.0909L92.2182 23H88.8091L84.9952 12.0909H88.1912L90.4569 19.8963H90.5705L92.829 12.0909H96.0321Z" fill="url(#paint0_linear_1128_2936)"/>
<defs>
<linearGradient id="paint0_linear_1128_2936" x1="-1" y1="12" x2="97" y2="12" gradientUnits="userSpaceOnUse">
<stop stop-color="#2563EB"/>
<stop offset="1" stop-color="#9333EA"/>
</linearGradient>
</defs>
</svg>
