<svg width="27" height="26" viewBox="0 0 27 26" fill="none" xmlns="http://www.w3.org/2000/svg">
<path d="M13.332 6.5V19.5M10.082 16.447L11.0341 17.1611C12.3033 18.113 14.361 18.113 15.6302 17.1611C16.8993 16.2092 16.8993 14.6658 15.6302 13.7139C14.9955 13.2379 14.1637 13 13.3319 13C12.5466 13 11.7614 12.7621 11.1622 12.2861C9.96394 11.3342 9.96395 9.79086 11.1622 8.83896C12.3605 7.88705 14.3033 7.88705 15.5015 8.83896L15.951 9.19601M23.082 13C23.082 18.3848 18.7168 22.75 13.332 22.75C7.94725 22.75 3.58203 18.3848 3.58203 13C3.58203 7.61522 7.94725 3.25 13.332 3.25C18.7168 3.25 23.082 7.61522 23.082 13Z" stroke="#4F46E5" stroke-width="1.7" stroke-linecap="round" stroke-linejoin="round"/>
</svg>
