<svg width="23" height="24" viewBox="0 0 23 24" fill="none" xmlns="http://www.w3.org/2000/svg">
<path d="M8.86746 2.59673C8.97266 1.96385 9.51881 1.5 10.1587 1.5H13.1772C13.8171 1.5 14.3633 1.96385 14.4685 2.59673L14.7169 4.09128C14.7895 4.52767 15.0803 4.89116 15.4664 5.10542C15.5527 5.15332 15.638 5.20281 15.7223 5.25383C16.1005 5.48281 16.5606 5.55401 16.9743 5.3986L18.3903 4.86674C18.9896 4.64165 19.6633 4.88393 19.9833 5.43957L21.4925 8.06041C21.8125 8.61606 21.6849 9.32219 21.1908 9.72997L20.0221 10.6946C19.6817 10.9755 19.513 11.4093 19.5212 11.8513C19.5221 11.9007 19.5226 11.9503 19.5226 12C19.5226 12.0497 19.5221 12.0992 19.5212 12.1487C19.513 12.5906 19.6817 13.0245 20.0221 13.3054L21.1908 14.27C21.6849 14.6778 21.8125 15.3839 21.4925 15.9396L19.9833 18.5604C19.6633 19.1161 18.9896 19.3583 18.3903 19.1332L16.9743 18.6014C16.5606 18.446 16.1006 18.5172 15.7223 18.7462C15.638 18.7972 15.5527 18.8467 15.4664 18.8946C15.0803 19.1088 14.7895 19.4723 14.7169 19.9087L14.4685 21.4033C14.3633 22.0361 13.8171 22.5 13.1772 22.5H10.1587C9.51881 22.5 8.97266 22.0361 8.86746 21.4033L8.61901 19.9087C8.54647 19.4723 8.25559 19.1088 7.86953 18.8946C7.78322 18.8467 7.6979 18.7972 7.61362 18.7462C7.23539 18.5172 6.77537 18.446 6.36162 18.6014L4.94562 19.1333C4.34636 19.3583 3.67262 19.1161 3.35265 18.5604L1.84343 15.9396C1.52346 15.3839 1.65106 14.6778 2.14512 14.27L3.31382 13.3054C3.6542 13.0245 3.82292 12.5907 3.81476 12.1487C3.81384 12.0993 3.81339 12.0497 3.81339 12C3.81339 11.9503 3.81384 11.9008 3.81476 11.8513C3.82292 11.4094 3.65419 10.9755 3.31382 10.6946L2.14511 9.72999C1.65106 9.3222 1.52346 8.61607 1.84343 8.06043L3.35265 5.43959C3.67262 4.88394 4.34636 4.64167 4.94562 4.86676L6.3616 5.39861C6.77535 5.55402 7.23538 5.48282 7.6136 5.25384C7.69789 5.20281 7.78322 5.15332 7.86953 5.10542C8.25559 4.89116 8.54647 4.52767 8.61901 4.09128L8.86746 2.59673Z" stroke="#4F46E5" stroke-width="1.7" stroke-linecap="round" stroke-linejoin="round"/>
<path d="M15.1586 11.9999C15.1586 13.9329 13.5957 15.4999 11.6677 15.4999C9.73971 15.4999 8.17677 13.9329 8.17677 11.9999C8.17677 10.0669 9.73971 8.49991 11.6677 8.49991C13.5957 8.49991 15.1586 10.0669 15.1586 11.9999Z" stroke="#4F46E5" stroke-width="1.7" stroke-linecap="round" stroke-linejoin="round"/>
</svg>
