<svg width="22" height="20" viewBox="0 0 22 20" fill="none" xmlns="http://www.w3.org/2000/svg">
<path d="M19.4615 6.51104C20.3683 6.79549 21 7.6392 21 8.60822V12.8938C21 14.0304 20.1309 14.9943 18.9689 15.0867C18.6213 15.1144 18.2727 15.1386 17.9231 15.1592V18.25L14.8462 15.25C13.4577 15.25 12.0827 15.1948 10.7233 15.0866C10.4173 15.0623 10.1317 14.9775 9.87686 14.8451M19.4615 6.51104C19.3062 6.46232 19.1429 6.43 18.9732 6.41628C17.6125 6.30616 16.236 6.25 14.8461 6.25C13.4562 6.25 12.0798 6.30616 10.7191 6.41627C9.55897 6.51015 8.69231 7.47323 8.69231 8.60821V12.8937C8.69231 13.731 9.16396 14.4746 9.87686 14.8451M19.4615 6.51104V4.63731C19.4615 3.01589 18.2803 1.61065 16.6311 1.40191C14.5362 1.13676 12.4 1 10.2311 1C8.06188 1 5.92546 1.13678 3.83039 1.40199C2.18126 1.61074 1 3.01598 1 4.63738V10.8626C1 12.484 2.18127 13.8893 3.8304 14.098C4.42216 14.1729 5.01722 14.2376 5.61538 14.2918V19L9.87686 14.8451" stroke="#4F46E5" stroke-width="1.7" stroke-linecap="round" stroke-linejoin="round"/>
</svg>
