<svg width="16" height="16" viewBox="0 0 16 16" fill="none" xmlns="http://www.w3.org/2000/svg">
<path d="M4.28012 6.58741C4.80303 7.52923 5.40356 8.43296 6.18719 9.25906C6.96935 10.0896 7.94485 10.8439 9.20744 11.4884C9.30118 11.5338 9.39053 11.5338 9.46816 11.503C9.58826 11.4576 9.7113 11.358 9.83141 11.2379C9.92515 11.1442 10.0409 10.9948 10.1624 10.8322C10.6473 10.1935 11.2493 9.40114 12.0973 9.79661C12.1164 9.8054 12.131 9.81565 12.1486 9.82444L14.9799 11.4517C14.9887 11.4561 14.9989 11.4664 15.0077 11.4708C15.3812 11.7271 15.535 12.1241 15.5394 12.5723C15.5394 13.0292 15.371 13.5434 15.1249 13.9755C14.7997 14.5482 14.3178 14.9275 13.7642 15.178C13.2369 15.4211 12.6495 15.5515 12.0856 15.635C11.1995 15.7653 10.3704 15.6819 9.52235 15.4211C8.69186 15.1648 7.85697 14.74 6.94445 14.1761L6.87707 14.1336C6.45816 13.8729 6.00556 13.5917 5.56175 13.2621C3.93591 12.0347 2.28078 10.2639 1.20275 8.31432C0.297552 6.67676 -0.196058 4.91031 0.0734504 3.22588C0.222852 2.30311 0.618326 1.46383 1.30967 0.908697C1.91167 0.423875 2.72166 0.157296 3.77187 0.251038C3.89197 0.259827 4.00036 0.330133 4.05602 0.432664L5.87081 3.49978C6.13592 3.84399 6.16961 4.18527 6.0246 4.52655C5.9045 4.80631 5.66135 5.0641 5.33033 5.30432C5.23219 5.38781 5.11648 5.47276 4.99491 5.56064C4.58918 5.85505 4.12779 6.19487 4.28598 6.5962L4.28012 6.58741Z" fill="white"/>
</svg>
