<svg width="22" height="18" viewBox="0 0 22 18" fill="none" xmlns="http://www.w3.org/2000/svg">
<path d="M1.03623 9.3224C0.967153 9.11513 0.967087 8.89073 1.03605 8.68343C2.42441 4.50972 6.36147 1.5 11.0015 1.5C15.6394 1.5 19.5749 4.50692 20.965 8.6776C21.0341 8.88487 21.0342 9.10927 20.9652 9.31658C19.5768 13.4903 15.6398 16.5 10.9997 16.5C6.36188 16.5 2.42632 13.4931 1.03623 9.3224Z" stroke="white" stroke-width="1.5" stroke-linecap="round" stroke-linejoin="round"/>
<path d="M14.0007 9C14.0007 10.6569 12.6575 12 11.0007 12C9.34383 12 8.00068 10.6569 8.00068 9C8.00068 7.34315 9.34383 6 11.0007 6C12.6575 6 14.0007 7.34315 14.0007 9Z" stroke="white" stroke-width="1.5" stroke-linecap="round" stroke-linejoin="round"/>
</svg>
