<svg width="22" height="22" viewBox="0 0 22 22" fill="none" xmlns="http://www.w3.org/2000/svg">
<path d="M8.98252 15.1224C8.53683 14.0243 7.45967 13.25 6.20166 13.25C4.54481 13.25 3.20166 14.5931 3.20166 16.25C3.20166 17.4926 2.19428 18.5 0.951636 18.5C0.900942 18.5 0.85064 18.4983 0.800781 18.495C1.57814 19.8428 3.03395 20.75 4.70164 20.75C7.17987 20.75 9.1902 18.7467 9.20159 16.2711C9.20164 16.2641 9.20166 16.2571 9.20166 16.25C9.20166 15.8512 9.12383 15.4705 8.98252 15.1224ZM8.98252 15.1224C10.1768 14.7153 11.3128 14.1705 12.3691 13.5028M7.32666 13.4769C7.73396 12.2797 8.27976 11.1411 8.9489 10.0825M12.3691 13.5028C14.2496 12.3141 15.8775 10.7362 17.1323 8.85406L21.0083 3.04006C21.1344 2.85093 21.2017 2.6287 21.2017 2.40139C21.2017 1.76549 20.6862 1.25 20.0503 1.25C19.823 1.25 19.6007 1.31729 19.4116 1.44338L13.5976 5.31937C11.7155 6.57413 10.1376 8.20204 8.9489 10.0825M12.3691 13.5028C11.6913 11.9833 10.4684 10.7604 8.9489 10.0825" stroke="white" stroke-width="1.5" stroke-linecap="round" stroke-linejoin="round"/>
</svg>
