<svg width="20" height="20" viewBox="0 0 20 20" fill="none" xmlns="http://www.w3.org/2000/svg">
<path d="M0.855469 1V2.5M0.855469 19V13M0.855469 13L3.62556 12.3075C5.70981 11.7864 7.91171 12.0281 9.8333 12.9889L9.94103 13.0428C11.8242 13.9844 13.9778 14.2359 16.0273 13.7537L19.1416 13.0209C18.9525 11.2899 18.8555 9.5313 18.8555 7.75C18.8555 5.98343 18.9509 4.23914 19.1369 2.52202L16.0273 3.25369C13.9778 3.73591 11.8242 3.48435 9.94103 2.54278L9.8333 2.48892C7.91171 1.52812 5.70981 1.28641 3.62556 1.80748L0.855469 2.5M0.855469 13V2.5" stroke="white" stroke-width="1.5" stroke-linecap="round" stroke-linejoin="round"/>
</svg>
