<svg width="1500" height="734" viewBox="0 0 1500 734" fill="none" xmlns="http://www.w3.org/2000/svg">
<path d="M73.3747 9.00946C77.8507 13.4854 83.9214 16 90.2513 16H1377C1444.93 16 1500 71.069 1500 139C1500 206.931 1444.93 262 1377 262H176.996C174.235 262 171.996 259.761 171.996 257C171.996 254.239 174.235 252 176.996 252H1377C1439.4 252 1490 201.408 1490 139C1490 76.5918 1439.4 26 1377 26H90.2513C83.9214 26 77.8507 28.5146 73.3747 32.9905L70.9316 35.4336C62.9602 43.405 50.0359 43.405 42.0645 35.4336C34.093 27.4621 34.093 14.5379 42.0645 6.56641C50.0359 -1.40504 62.9602 -1.40505 70.9316 6.5664L73.3747 9.00946Z" fill="#2563EB"/>
<path d="M0 375C0 442.931 55.069 498 123 498H1334C1336.76 498 1339 495.761 1339 493C1339 490.239 1336.76 488 1334 488H123C60.5918 488 10 437.408 10 375C10 312.592 60.5918 262 123 262H1322.49C1325.81 262 1327.5 260.317 1327.5 257C1327.5 253.852 1325.64 252 1322.49 252H123C55.0687 252 0 307.069 0 375Z" fill="#2563EB"/>
<path d="M1500 611C1500 678.931 1444.93 734 1377 734H899.999C897.238 734 894.999 731.761 894.999 729C894.999 726.239 897.238 724 899.999 724H1377C1439.41 724 1490 673.408 1490 611C1490 548.592 1439.41 498 1377 498H177.509C174.192 498 172.5 496.317 172.5 493C172.5 489.852 174.361 488 177.509 488H1377C1444.93 488 1500 543.069 1500 611Z" fill="#2563EB"/>
</svg>
