<svg width="27" height="26" viewBox="0 0 27 26" fill="none" xmlns="http://www.w3.org/2000/svg">
<path d="M24.332 15.8666V21.5333C24.332 22.9926 23.2828 24.2479 21.8362 24.4399C19.054 24.8093 16.2153 25 13.332 25C10.4488 25 7.61008 24.8093 4.82783 24.4399C3.38123 24.2479 2.33203 22.9926 2.33203 21.5333V15.8665M24.332 15.8666C24.9613 15.3302 25.332 14.5185 25.332 13.6518V8.60758C25.332 7.16633 24.3082 5.92109 22.8828 5.70781C21.3823 5.4833 19.8647 5.31087 18.332 5.19243M24.332 15.8666C24.0739 16.0866 23.7722 16.2603 23.4348 16.3725C20.2591 17.4283 16.8624 18 13.3321 18C9.80175 18 6.40496 17.4283 3.22921 16.3725C2.89182 16.2603 2.59018 16.0866 2.33203 15.8665M2.33203 15.8665C1.7028 15.3302 1.33203 14.5185 1.33203 13.6518V8.60759C1.33203 7.16633 2.3559 5.92109 3.78129 5.70781C5.2818 5.4833 6.79935 5.31087 8.33203 5.19243M18.332 5.19243V4C18.332 2.34315 16.9889 1 15.332 1H11.332C9.67518 1 8.33203 2.34315 8.33203 4V5.19243M18.332 5.19243C16.6821 5.06493 15.0147 5 13.332 5C11.6494 5 9.98195 5.06493 8.33203 5.19243M13.332 14H13.342V14.01H13.332V14Z" stroke="#2563EB" stroke-width="2" stroke-linecap="round" stroke-linejoin="round"/>
</svg>
