<svg width="25" height="24" viewBox="0 0 25 24" fill="none" xmlns="http://www.w3.org/2000/svg">
<path d="M10.1588 16.9395C9.67878 15.757 8.51877 14.9231 7.16399 14.9231C5.37968 14.9231 3.93322 16.3695 3.93322 18.1538C3.93322 19.4921 2.84834 20.5769 1.51011 20.5769C1.45552 20.5769 1.40135 20.5751 1.34766 20.5716C2.18481 22.023 3.7526 23 5.54858 23C8.21744 23 10.3824 20.8426 10.3947 18.1766C10.3947 18.169 10.3948 18.1614 10.3948 18.1538C10.3948 17.7243 10.3109 17.3144 10.1588 16.9395ZM10.1588 16.9395C11.445 16.5011 12.6683 15.9143 13.8059 15.1953M8.37553 15.1674C8.81416 13.8782 9.40194 12.652 10.1226 11.5119M13.8059 15.1953C15.831 13.9152 17.5842 12.2159 18.9354 10.189L23.1096 3.92776C23.2454 3.72408 23.3178 3.48475 23.3178 3.23996C23.3178 2.55515 22.7627 2 22.0779 2C21.8331 2 21.5938 2.07246 21.3901 2.20825L15.1289 6.3824C13.1019 7.73368 11.4027 9.48681 10.1226 11.5119M13.8059 15.1953C13.0759 13.5589 11.7589 12.2419 10.1226 11.5119" stroke="#2563EB" stroke-width="2" stroke-linecap="round" stroke-linejoin="round"/>
</svg>
