<svg width="27" height="25" viewBox="0 0 27 25" fill="none" xmlns="http://www.w3.org/2000/svg">
<path d="M12.9831 1.45611C13.2361 0.847962 14.0976 0.847962 14.3505 1.45611L17.1492 8.18491C17.2558 8.44129 17.4969 8.61646 17.7737 8.63865L25.038 9.22103C25.6946 9.27366 25.9608 10.093 25.4606 10.5215L19.9259 15.2625C19.7151 15.4431 19.623 15.7266 19.6874 15.9967L21.3783 23.0854C21.5311 23.7261 20.8342 24.2325 20.2721 23.8891L14.0528 20.0905C13.8158 19.9457 13.5178 19.9457 13.2809 20.0905L7.0616 23.8891C6.4995 24.2325 5.80252 23.7261 5.95534 23.0854L7.64626 15.9967C7.71069 15.7266 7.6186 15.4431 7.40772 15.2625L1.87309 10.5215C1.37286 10.093 1.63909 9.27366 2.29564 9.22103L9.55993 8.63865C9.83672 8.61646 10.0778 8.44129 10.1845 8.18491L12.9831 1.45611Z" stroke="#2563EB" stroke-width="2" stroke-linecap="round" stroke-linejoin="round"/>
</svg>
