<svg width="24" height="24" viewBox="0 0 24 24" fill="none" xmlns="http://www.w3.org/2000/svg">
<path d="M8.33333 18.4167V19.6479C8.33333 20.6203 7.94702 21.553 7.25939 22.2406L6.5 23H17.5L16.7406 22.2406C16.053 21.553 15.6667 20.6203 15.6667 19.6479V18.4167M23 3.75V15.6667C23 17.1854 21.7688 18.4167 20.25 18.4167H3.75C2.23122 18.4167 1 17.1854 1 15.6667V3.75M23 3.75C23 2.23122 21.7688 1 20.25 1H3.75C2.23122 1 1 2.23122 1 3.75M23 3.75V12C23 13.5188 21.7688 14.75 20.25 14.75H3.75C2.23122 14.75 1 13.5188 1 12V3.75" stroke="#2563EB" stroke-width="2" stroke-linecap="round" stroke-linejoin="round"/>
</svg>
