<svg width="25" height="25" viewBox="0 0 25 25" fill="none" xmlns="http://www.w3.org/2000/svg">
<path d="M9.58741 2.20118C9.70313 1.50803 10.3039 1 11.0078 1H14.3281C15.032 1 15.6328 1.50803 15.7485 2.20118L16.0218 3.83807C16.1016 4.31602 16.4216 4.71413 16.8462 4.94879C16.9412 5.00126 17.035 5.05545 17.1278 5.11134C17.5438 5.36213 18.0498 5.4401 18.5049 5.2699L20.0625 4.68738C20.7217 4.44086 21.4629 4.7062 21.8148 5.31477L23.475 8.18522C23.8269 8.79378 23.6866 9.56716 23.1431 10.0138L21.8575 11.0703C21.4831 11.378 21.2975 11.8531 21.3065 12.3371C21.3075 12.3913 21.308 12.4456 21.308 12.5C21.308 12.5544 21.3075 12.6087 21.3065 12.6629C21.2975 13.1469 21.4831 13.622 21.8575 13.9297L23.1431 14.9862C23.6866 15.4328 23.8269 16.2062 23.475 16.8148L21.8148 19.6852C21.4629 20.2938 20.7217 20.5591 20.0625 20.3126L18.505 19.7301C18.0498 19.5599 17.5438 19.6379 17.1278 19.8886C17.0351 19.9445 16.9412 19.9987 16.8462 20.0512C16.4216 20.2859 16.1016 20.684 16.0218 21.1619L15.7485 22.7988C15.6328 23.492 15.032 24 14.3281 24H11.0078C10.3039 24 9.70313 23.492 9.58741 22.7988L9.31412 21.1619C9.23432 20.684 8.91435 20.2859 8.48969 20.0512C8.39475 19.9987 8.3009 19.9445 8.20818 19.8887C7.79214 19.6379 7.28611 19.5599 6.83099 19.7301L5.27339 20.3126C4.6142 20.5591 3.87308 20.2938 3.52112 19.6852L1.86097 16.8148C1.50901 16.2062 1.64936 15.4328 2.19283 14.9862L3.47841 13.9297C3.85282 13.622 4.03842 13.1469 4.02944 12.6629C4.02843 12.6087 4.02793 12.5544 4.02793 12.5C4.02793 12.4456 4.02843 12.3913 4.02944 12.3371C4.03842 11.8531 3.85282 11.378 3.47841 11.0703L2.19283 10.0138C1.64936 9.56718 1.50901 8.7938 1.86097 8.18523L3.52112 5.31479C3.87308 4.70622 4.6142 4.44087 5.27339 4.6874L6.83097 5.26991C7.28609 5.44012 7.79212 5.36214 8.20817 5.11135C8.30088 5.05546 8.39474 5.00126 8.48969 4.94879C8.91435 4.71413 9.23432 4.31602 9.31412 3.83807L9.58741 2.20118Z" stroke="#2563EB" stroke-width="2" stroke-linecap="round" stroke-linejoin="round"/>
<path d="M16.5077 12.4999C16.5077 14.617 14.7885 16.3332 12.6677 16.3332C10.5469 16.3332 8.82765 14.617 8.82765 12.4999C8.82765 10.3828 10.5469 8.66657 12.6677 8.66657C14.7885 8.66657 16.5077 10.3828 16.5077 12.4999Z" stroke="#2563EB" stroke-width="2" stroke-linecap="round" stroke-linejoin="round"/>
</svg>
